<?xml version="1.0" standalone="no"?>
<!DOCTYPE svg PUBLIC "-//W3C//DTD SVG 20010904//EN"
 "http://www.w3.org/TR/2001/REC-SVG-20010904/DTD/svg10.dtd">
<svg version="1.0" xmlns="http://www.w3.org/2000/svg"
 width="512.000000pt" height="512.000000pt" viewBox="0 0 512.000000 512.000000"
 preserveAspectRatio="xMidYMid meet">
<metadata>
Created by potrace 1.14, written by Peter Selinger 2001-2017
</metadata>
<g transform="translate(0.000000,512.000000) scale(0.100000,-0.100000)"
fill="#000000" stroke="none">
<path d="M2855 4078 c-38 -84 -93 -204 -122 -266 -29 -62 -53 -117 -53 -121 0
-4 -602 -7 -1337 -7 l-1338 0 -3 -182 c-2 -142 0 -182 10 -183 7 0 60 -1 118
-1 164 1 146 37 142 -277 -3 -253 -2 -270 15 -275 10 -3 66 -16 124 -30 201
-47 415 -114 613 -191 402 -156 701 -356 846 -566 42 -61 100 -174 100 -196 0
-7 3 -14 8 -15 4 0 159 -2 345 -3 288 -1 339 1 350 13 6 8 11 17 9 19 -5 7 11
60 41 133 77 188 196 327 334 391 l52 24 1 760 0 760 801 0 c788 0 800 0 818
20 9 11 59 79 111 150 52 72 105 145 118 163 l24 32 -1028 0 -1029 0 -70 -152z"/>
<path d="M3300 3682 c-7 -3 -10 -229 -10 -651 l0 -648 168 -1 c221 0 330 -23
475 -99 72 -38 187 -138 228 -197 25 -38 46 -46 55 -22 7 17 95 57 138 61 17
2 176 4 354 4 l322 1 0 478 0 478 -88 135 c-49 73 -106 161 -128 194 -21 33
-41 65 -44 70 -4 9 -118 183 -127 194 -4 5 -1328 8 -1343 3z m1364 -421 l90
-144 1 -218 0 -219 -30 -1 c-37 -1 -688 -1 -696 0 -3 1 -6 165 -6 366 l0 365
276 -2 275 -3 90 -144z"/>
<path d="M1049 2166 c-2 -2 -22 -7 -44 -10 -148 -23 -321 -137 -410 -272 -208
-313 -104 -737 225 -916 105 -57 198 -78 330 -74 174 6 305 63 430 188 118
118 183 274 183 443 0 124 -20 205 -79 312 -81 151 -227 264 -395 308 -57 16
-230 30 -240 21z m172 -453 c205 -105 114 -410 -116 -391 -209 17 -260 299
-71 393 66 33 118 32 187 -2z"/>
<path d="M3353 2150 c-253 -65 -431 -256 -481 -515 -3 -16 -6 -70 -5 -120 2
-269 169 -496 435 -593 65 -24 86 -27 203 -26 139 0 174 8 287 64 240 118 385
399 343 665 -10 60 -53 184 -75 216 -11 15 -20 31 -20 36 0 16 -134 150 -183
183 -142 95 -343 130 -504 90z m256 -441 c65 -36 103 -103 103 -183 0 -115
-93 -206 -209 -206 -85 1 -165 54 -198 133 -17 40 -12 125 9 170 20 41 74 88
121 105 44 17 127 8 174 -19z"/>
<path d="M4357 1935 c-47 -15 -58 -49 -60 -174 -1 -115 9 -148 52 -170 12 -7
146 -10 370 -8 429 3 394 -12 399 163 2 70 -1 126 -7 143 -23 55 -28 55 -389
56 -204 0 -345 -3 -365 -10z"/>
</g>
</svg>
